<svg id="Layer_1" data-name="Layer 1" xmlns="http://www.w3.org/2000/svg" viewBox="0 0 303.82 105.06"><defs><style>.cls-1{fill:#1d1d1b;}.cls-2{fill:#e84a28;}</style></defs><title>logo_nidi_compleet_en</title><path class="cls-1" d="M243.87,61.48a2,2,0,0,1,.54-1.19,1.69,1.69,0,0,1,1.22-.44,1.78,1.78,0,0,1,1.27.44,1.62,1.62,0,0,1,.47,1.19Zm5.21,1.28v-.47a4.83,4.83,0,0,0-.24-1.59,3.34,3.34,0,0,0-.65-1.16,2.92,2.92,0,0,0-1-.72,3.29,3.29,0,0,0-1.31-.25,4.14,4.14,0,0,0-1.45.26,3.44,3.44,0,0,0-1.18.72,3.49,3.49,0,0,0-.79,1.13,3.59,3.59,0,0,0-.29,1.48,3.51,3.51,0,0,0,.29,1.47,3.38,3.38,0,0,0,.79,1.13,3.31,3.31,0,0,0,1.18.73,4.14,4.14,0,0,0,1.45.26,4,4,0,0,0,1.56-.32,3.52,3.52,0,0,0,1.33-1.05l-1.22-.93a3,3,0,0,1-.76.67,2.11,2.11,0,0,1-1.08.26,1.85,1.85,0,0,1-1.24-.43,1.69,1.69,0,0,1-.59-1.19Zm-11.74-2.57v3.13a5.52,5.52,0,0,0,.09,1.06,1.77,1.77,0,0,0,.34.76,1.56,1.56,0,0,0,.69.46,3.77,3.77,0,0,0,1.11.15,4.83,4.83,0,0,0,.7-.06,2.27,2.27,0,0,0,.66-.17V64.08a1,1,0,0,1-.43.16,2.29,2.29,0,0,1-.5.05.84.84,0,0,1-.76-.3,1.45,1.45,0,0,1-.19-.81v-3h1.88V58.74h-1.88v-2h-1.71v2h-1.41v1.45Zm-2.91-1.45h-1.71v3.73a2.39,2.39,0,0,1-.08.66,1.59,1.59,0,0,1-.28.55,1.53,1.53,0,0,1-.48.39,1.74,1.74,0,0,1-.72.14,1.09,1.09,0,0,1-.71-.21,1.34,1.34,0,0,1-.37-.51,2.36,2.36,0,0,1-.15-.66c0-.23,0-.44,0-.63V58.74H228.2v4.31a3.8,3.8,0,0,0,.13,1,2.23,2.23,0,0,0,.42.86,2,2,0,0,0,.78.59,2.69,2.69,0,0,0,1.16.23,2.19,2.19,0,0,0,1.35-.38,2.41,2.41,0,0,0,.74-.89h0v1.09h1.62Zm-11.51,1.45v3.13a4.77,4.77,0,0,0,.1,1.06,1.66,1.66,0,0,0,.34.76,1.47,1.47,0,0,0,.68.46,3.79,3.79,0,0,0,1.12.15,4.6,4.6,0,0,0,.69-.06,2.27,2.27,0,0,0,.66-.17V64.08a.94.94,0,0,1-.43.16,2.2,2.2,0,0,1-.49.05.85.85,0,0,1-.77-.3,1.54,1.54,0,0,1-.19-.81v-3h1.88V58.74h-1.88v-2h-1.71v2h-1.41v1.45Zm-4.56-3a1.06,1.06,0,0,0,.77.31,1.09,1.09,0,0,0,.79-.3,1,1,0,0,0,0-1.46,1.09,1.09,0,0,0-.79-.29,1,1,0,0,0-.77.3,1,1,0,0,0-.31.72,1,1,0,0,0,.31.72m-.07,8.43H220V58.74h-1.71ZM213,60.19v3.13a5.52,5.52,0,0,0,.09,1.06,1.78,1.78,0,0,0,.35.76,1.47,1.47,0,0,0,.68.46,3.79,3.79,0,0,0,1.12.15,4.6,4.6,0,0,0,.69-.06,2.27,2.27,0,0,0,.66-.17V64.08a.94.94,0,0,1-.43.16,2.2,2.2,0,0,1-.49.05.85.85,0,0,1-.77-.3,1.54,1.54,0,0,1-.19-.81v-3h1.88V58.74h-1.88v-2H213v2H211.6v1.45Zm-2.68-.58a2.2,2.2,0,0,0-1.08-.8,4,4,0,0,0-1.36-.24,3.83,3.83,0,0,0-1,.13,2.62,2.62,0,0,0-.88.4,2.06,2.06,0,0,0-.62.69,2,2,0,0,0-.24,1,1.71,1.71,0,0,0,.28,1,1.82,1.82,0,0,0,.68.58,3.34,3.34,0,0,0,.89.3c.32.06.61.13.89.2a2.54,2.54,0,0,1,.68.27.59.59,0,0,1,.27.53.6.6,0,0,1-.1.35,1.12,1.12,0,0,1-.28.25,1.28,1.28,0,0,1-.37.14,1.72,1.72,0,0,1-.39,0,1.64,1.64,0,0,1-.91-.23,3.11,3.11,0,0,1-.71-.61l-1.14,1.07a2.75,2.75,0,0,0,1.2.83,4.52,4.52,0,0,0,1.46.23,4.72,4.72,0,0,0,1.06-.12,2.89,2.89,0,0,0,.94-.37,2.21,2.21,0,0,0,.69-.67,2,2,0,0,0,.26-1,1.82,1.82,0,0,0-.27-1,1.86,1.86,0,0,0-.68-.6,3.39,3.39,0,0,0-.89-.33l-.89-.21a3.66,3.66,0,0,1-.69-.24.49.49,0,0,1-.27-.46.57.57,0,0,1,.33-.55,1.36,1.36,0,0,1,.67-.17,1.57,1.57,0,0,1,1.34.69Zm-13.35,6h1.71V61.84a2.37,2.37,0,0,1,.09-.65,1.64,1.64,0,0,1,.28-.56,1.4,1.4,0,0,1,.48-.38,1.68,1.68,0,0,1,.72-.14,1.14,1.14,0,0,1,.7.2,1.21,1.21,0,0,1,.37.52,2.29,2.29,0,0,1,.15.65c0,.24,0,.45,0,.64v3.45h1.71V61.26a3.73,3.73,0,0,0-.13-1,2.26,2.26,0,0,0-.42-.85,2.14,2.14,0,0,0-.78-.6,2.73,2.73,0,0,0-1.16-.23,2.19,2.19,0,0,0-1.35.38,2.31,2.31,0,0,0-.74.89h0v-1.1H197Zm-4-8.43a1.06,1.06,0,0,0,.78.31,1.13,1.13,0,0,0,.79-.3,1,1,0,0,0,0-1.46,1.12,1.12,0,0,0-.79-.29,1.06,1.06,0,0,0-.78.3,1,1,0,0,0-.31.72,1,1,0,0,0,.31.72M193,65.57h1.7V58.74H193Z"/><path class="cls-1" d="M283.53,41.82a3.06,3.06,0,0,0-1.16-.8,3.84,3.84,0,0,0-1.32-.24,4.13,4.13,0,0,0-1.45.25,3.56,3.56,0,0,0-1.18.73,3.38,3.38,0,0,0-.79,1.13,3.67,3.67,0,0,0-.29,1.47,3.72,3.72,0,0,0,.29,1.48,3.38,3.38,0,0,0,.79,1.13,3.53,3.53,0,0,0,1.18.72,4.14,4.14,0,0,0,1.45.26,3.74,3.74,0,0,0,.54-.05,4.5,4.5,0,0,0,.66-.16,5,5,0,0,0,.68-.3,2.93,2.93,0,0,0,.59-.44l-1.14-1.23a1.61,1.61,0,0,1-.59.48,1.64,1.64,0,0,1-.74.16,1.91,1.91,0,0,1-.84-.17,2,2,0,0,1-.63-.45,1.86,1.86,0,0,1-.4-.66,2.19,2.19,0,0,1-.13-.77,2.27,2.27,0,0,1,.13-.77,1.91,1.91,0,0,1,.4-.65,2.22,2.22,0,0,1,.63-.46,2.07,2.07,0,0,1,.84-.17,1.29,1.29,0,0,1,.67.19,2.61,2.61,0,0,1,.63.5Zm-9.77-2.48a1.06,1.06,0,0,0,.78.31,1.15,1.15,0,0,0,.79-.29,1,1,0,0,0,0-1.47,1.15,1.15,0,0,0-.79-.29,1.06,1.06,0,0,0-.78.31,1,1,0,0,0,0,1.43m-.06,8.44h1.71V41H273.7ZM266.89,37h-1.71V47.78h1.71V44.05a2.69,2.69,0,0,1,.08-.65,1.55,1.55,0,0,1,.28-.56,1.32,1.32,0,0,1,.49-.38,1.52,1.52,0,0,1,.71-.15,1.06,1.06,0,0,1,.7.21,1.27,1.27,0,0,1,.38.51,2.36,2.36,0,0,1,.15.66q0,.35,0,.63v3.46h1.71V43.47a4.17,4.17,0,0,0-.13-1,2.32,2.32,0,0,0-.43-.86,2.26,2.26,0,0,0-.78-.6,2.67,2.67,0,0,0-1.16-.22,2.26,2.26,0,0,0-1.3.34,2.11,2.11,0,0,0-.7.78h0Zm-5.52,8.11a1.86,1.86,0,0,1-.4.66,1.81,1.81,0,0,1-.63.45,2.16,2.16,0,0,1-1.68,0,1.81,1.81,0,0,1-.63-.45,1.86,1.86,0,0,1-.4-.66,2.19,2.19,0,0,1-.14-.77,2.28,2.28,0,0,1,.14-.77,1.91,1.91,0,0,1,.4-.65,2,2,0,0,1,.63-.46,2.16,2.16,0,0,1,1.68,0,2,2,0,0,1,.63.46,1.91,1.91,0,0,1,.4.65,2.28,2.28,0,0,1,.14.77,2.19,2.19,0,0,1-.14.77M255.84,51h1.71V46.91h0a3.46,3.46,0,0,0,.33.35,2.69,2.69,0,0,0,.48.34,3.37,3.37,0,0,0,.66.25,3.26,3.26,0,0,0,3.24-.94,3.4,3.4,0,0,0,.67-1.14,3.8,3.8,0,0,0,.24-1.41A4.34,4.34,0,0,0,263,43a3.29,3.29,0,0,0-.67-1.13,3.19,3.19,0,0,0-1.07-.77,3.55,3.55,0,0,0-1.41-.27,3.23,3.23,0,0,0-1.35.28,2.19,2.19,0,0,0-1,.91h0V41h-1.62ZM252,45.1a1.55,1.55,0,0,1-.42,1.15,1.78,1.78,0,0,1-1.3.42,2,2,0,0,1-.43-.05,1.18,1.18,0,0,1-.38-.16.93.93,0,0,1-.28-.28.76.76,0,0,1-.11-.41.67.67,0,0,1,.27-.57,1.85,1.85,0,0,1,.66-.32,4.36,4.36,0,0,1,.83-.13l.8,0H252Zm.1,2.68h1.54V43.85c0-.16,0-.35,0-.56a3.74,3.74,0,0,0-.09-.66,2.57,2.57,0,0,0-.26-.68,1.85,1.85,0,0,0-.5-.59,2.81,2.81,0,0,0-.83-.42,3.92,3.92,0,0,0-1.22-.16,5,5,0,0,0-1.58.25,3.34,3.34,0,0,0-1.33.84l.9.9a2.6,2.6,0,0,1,1.82-.71,1.84,1.84,0,0,1,1.13.32,1.11,1.11,0,0,1,.44,1v.18h-.43l-.91,0c-.32,0-.64.05-1,.1a5.65,5.65,0,0,0-.92.24,2.49,2.49,0,0,0-.77.42,1.88,1.88,0,0,0-.54.65,2.12,2.12,0,0,0-.2.95,1.77,1.77,0,0,0,.22.9,2,2,0,0,0,.56.64,2.41,2.41,0,0,0,.79.38,3.2,3.2,0,0,0,.92.13,3.05,3.05,0,0,0,1.26-.26,2.31,2.31,0,0,0,.94-.85h0Zm-10.16,0h1.71V44.12a2.36,2.36,0,0,1,.06-.43,1.61,1.61,0,0,1,.26-.57,1.8,1.8,0,0,1,.55-.5,1.82,1.82,0,0,1,1-.22,2.83,2.83,0,0,1,.41,0l.42.1V40.87L246,40.8l-.3,0a2.21,2.21,0,0,0-1.21.32,2.1,2.1,0,0,0-.81.93h0V41h-1.71Zm-4.47-4.91a2,2,0,0,1,.54,1.45,2.36,2.36,0,0,1-.14.8,1.81,1.81,0,0,1-.41.63,1.78,1.78,0,0,1-.64.42,2.06,2.06,0,0,1-.84.16,2,2,0,0,1-1.86-1.21,2,2,0,0,1-.15-.77,2.23,2.23,0,0,1,.15-.83,1.68,1.68,0,0,1,.41-.64,1.93,1.93,0,0,1,.63-.42,2.19,2.19,0,0,1,.83-.15,2,2,0,0,1,1.48.56M238,41v1h0a2.17,2.17,0,0,0-1-.91,3.25,3.25,0,0,0-1.36-.28,3.48,3.48,0,0,0-1.41.27,3.05,3.05,0,0,0-1.06.77,3.14,3.14,0,0,0-.67,1.13,4.09,4.09,0,0,0-.23,1.41,3.87,3.87,0,0,0,.24,1.37,3.16,3.16,0,0,0,.69,1.11,3.31,3.31,0,0,0,2.47,1,3.44,3.44,0,0,0,1.26-.24,2.37,2.37,0,0,0,1-.75h0v.5a3.83,3.83,0,0,1-.11.93,1.75,1.75,0,0,1-.36.72,1.68,1.68,0,0,1-.67.47,2.81,2.81,0,0,1-1,.17,3,3,0,0,1-1.28-.26,4.19,4.19,0,0,1-1.07-.72l-1,1.39a4,4,0,0,0,1.58.88,6.28,6.28,0,0,0,1.81.25,4.73,4.73,0,0,0,1.72-.29,3.28,3.28,0,0,0,1.2-.8,3.35,3.35,0,0,0,.71-1.27,5.82,5.82,0,0,0,.22-1.67V41Zm-12.93,2.64a1.91,1.91,0,0,1,.4-.65,2.22,2.22,0,0,1,.63-.46,2.07,2.07,0,0,1,.84-.17,2,2,0,0,1,.84.17,2.14,2.14,0,0,1,.64.46,2.08,2.08,0,0,1,.4.65,2.27,2.27,0,0,1,.13.77,2.19,2.19,0,0,1-.13.77,2,2,0,0,1-.4.66,2,2,0,0,1-.64.45,1.86,1.86,0,0,1-.84.17,1.91,1.91,0,0,1-.84-.17,2,2,0,0,1-.63-.45,1.86,1.86,0,0,1-.4-.66,2.19,2.19,0,0,1-.13-.77,2.27,2.27,0,0,1,.13-.77m-1.55,2.25a3.38,3.38,0,0,0,.79,1.13,3.53,3.53,0,0,0,1.18.72,4.2,4.2,0,0,0,2.91,0,3.64,3.64,0,0,0,1.18-.72,3.53,3.53,0,0,0,.79-1.13,3.72,3.72,0,0,0,.29-1.48,3.67,3.67,0,0,0-.29-1.47,3.53,3.53,0,0,0-.79-1.13,3.66,3.66,0,0,0-1.18-.73,4.36,4.36,0,0,0-2.91,0,3.56,3.56,0,0,0-1.18.73,3.38,3.38,0,0,0-.79,1.13,3.67,3.67,0,0,0-.29,1.47,3.72,3.72,0,0,0,.29,1.48m-12.75,1.94h1.7V44.05a2.27,2.27,0,0,1,.09-.65,1.55,1.55,0,0,1,.28-.56,1.37,1.37,0,0,1,.48-.38,1.59,1.59,0,0,1,.72-.15,1,1,0,0,1,.9.38,1.71,1.71,0,0,1,.27,1v4.07h1.71v-3.7a2.81,2.81,0,0,1,.07-.65,1.85,1.85,0,0,1,.26-.57,1.32,1.32,0,0,1,1.13-.55,1.28,1.28,0,0,1,.63.13,1,1,0,0,1,.38.35,1.43,1.43,0,0,1,.2.51,3.08,3.08,0,0,1,.06.61v3.87h1.71V43.71a5.26,5.26,0,0,0-.13-1.15,2.82,2.82,0,0,0-.42-.93A2,2,0,0,0,220,41a2.67,2.67,0,0,0-1.16-.22,2.74,2.74,0,0,0-1.32.3,2.44,2.44,0,0,0-.92,1,2.09,2.09,0,0,0-2.14-1.26,2.24,2.24,0,0,0-1.36.37,2.26,2.26,0,0,0-.73.86h0V41h-1.62Zm-7.13-4.1a2,2,0,0,1,.55-1.18,1.63,1.63,0,0,1,1.22-.44,1.74,1.74,0,0,1,1.26.43,1.6,1.6,0,0,1,.47,1.19ZM208.83,45v-.47a5.12,5.12,0,0,0-.23-1.59,3.45,3.45,0,0,0-.66-1.16,2.83,2.83,0,0,0-1-.72,3.42,3.42,0,0,0-1.3-.24,4.09,4.09,0,0,0-1.45.25,3.6,3.6,0,0,0-1.19.73,3.53,3.53,0,0,0-.79,1.13,3.67,3.67,0,0,0-.29,1.47,3.72,3.72,0,0,0,.29,1.48A3.53,3.53,0,0,0,203,47a3.58,3.58,0,0,0,1.19.72,4.1,4.1,0,0,0,1.45.26,3.9,3.9,0,0,0,1.55-.31,3.48,3.48,0,0,0,1.34-1.06l-1.23-.92a3,3,0,0,1-.76.66,2,2,0,0,1-1.07.26,1.88,1.88,0,0,1-1.24-.42,1.78,1.78,0,0,1-.6-1.2Zm-14.4-1.37a1.91,1.91,0,0,1,.4-.65,2.09,2.09,0,0,1,.63-.46,2.16,2.16,0,0,1,1.68,0,2,2,0,0,1,.63.46,1.91,1.91,0,0,1,.4.65,2.28,2.28,0,0,1,.14.77,2.19,2.19,0,0,1-.14.77,1.86,1.86,0,0,1-.4.66,1.81,1.81,0,0,1-.63.45,2,2,0,0,1-2.31-.45,1.86,1.86,0,0,1-.4-.66,2.19,2.19,0,0,1-.14-.77,2.28,2.28,0,0,1,.14-.77m3.91,4.19H200V37h-1.71v4.8h0a2.15,2.15,0,0,0-.33-.35,2.69,2.69,0,0,0-.48-.34,3.36,3.36,0,0,0-.66-.26,3.57,3.57,0,0,0-.85-.09,3.27,3.27,0,0,0-1.34.27,3.11,3.11,0,0,0-1.05.77,3.46,3.46,0,0,0-.67,1.13,4.09,4.09,0,0,0-.24,1.41,4.25,4.25,0,0,0,.22,1.41,3.4,3.4,0,0,0,.67,1.14,3.22,3.22,0,0,0,1.06.76A3.4,3.4,0,0,0,196,48a3.23,3.23,0,0,0,1.35-.28,2.25,2.25,0,0,0,1-.91h0Z"/><path class="cls-1" d="M299.44,30l-.33.81c-.08.18-.15.34-.21.46a.92.92,0,0,1-.61.5,2.65,2.65,0,0,1-.53.05,1.73,1.73,0,0,1-.45-.05,2.58,2.58,0,0,1-.42-.12l-.21,1.54a5.17,5.17,0,0,0,1.31.17,3.43,3.43,0,0,0,1-.12,1.93,1.93,0,0,0,.71-.37,2.58,2.58,0,0,0,.52-.61,5.63,5.63,0,0,0,.4-.85l3.23-8.3H302l-1.7,4.74h0l-1.91-4.74h-1.88Zm-8.3-.06h1.71V26.33a2.26,2.26,0,0,1,.06-.43,1.61,1.61,0,0,1,.26-.57,1.82,1.82,0,0,1,.55-.51,1.89,1.89,0,0,1,1-.22,2.85,2.85,0,0,1,.41,0,3.15,3.15,0,0,1,.42.09V23.08L295.2,23a1.53,1.53,0,0,0-.3,0,2.22,2.22,0,0,0-1.21.33,2.16,2.16,0,0,0-.82.92h0V23.15h-1.71Zm-3.87-2.67a1.52,1.52,0,0,1-.42,1.14,1.79,1.79,0,0,1-1.31.43,2,2,0,0,1-.42-.05,1.25,1.25,0,0,1-.39-.17.93.93,0,0,1-.28-.28.72.72,0,0,1-.1-.4.69.69,0,0,1,.27-.58,1.84,1.84,0,0,1,.66-.31,4.36,4.36,0,0,1,.83-.14l.8,0h.36Zm.09,2.67h1.54V26.06c0-.17,0-.35,0-.57a4,4,0,0,0-.09-.66,2.9,2.9,0,0,0-.26-.67,1.79,1.79,0,0,0-.51-.59,2.26,2.26,0,0,0-.82-.42A3.9,3.9,0,0,0,286,23a4.94,4.94,0,0,0-1.58.26,3.28,3.28,0,0,0-1.33.84l.9.89a2.6,2.6,0,0,1,1.82-.71,1.88,1.88,0,0,1,1.12.32,1.11,1.11,0,0,1,.44,1v.19h-.42l-.91,0a7.43,7.43,0,0,0-1,.1,5.38,5.38,0,0,0-.92.23,3.06,3.06,0,0,0-.78.42,2,2,0,0,0-.53.66,2.12,2.12,0,0,0-.2.95,1.8,1.8,0,0,0,.21.89,1.92,1.92,0,0,0,.56.64,2.71,2.71,0,0,0,.8.39,3.58,3.58,0,0,0,.92.13,2.86,2.86,0,0,0,1.25-.27,2.17,2.17,0,0,0,.94-.84h0Zm-12.78,0h1.71V26.25a2.82,2.82,0,0,1,.08-.65,1.68,1.68,0,0,1,.28-.55,1.35,1.35,0,0,1,.49-.39,1.68,1.68,0,0,1,.72-.14,1.11,1.11,0,0,1,.69.2,1.16,1.16,0,0,1,.38.52,2.29,2.29,0,0,1,.15.65c0,.23,0,.45,0,.64V30h1.71V25.67a4.17,4.17,0,0,0-.13-1,2.28,2.28,0,0,0-.43-.85,2.19,2.19,0,0,0-.77-.6,2.74,2.74,0,0,0-1.17-.23,2.23,2.23,0,0,0-1.35.38,2.41,2.41,0,0,0-.74.89h0v-1.1h-1.62Zm-4-8.43a1.06,1.06,0,0,0,.77.31,1.09,1.09,0,0,0,.79-.3.91.91,0,0,0,.32-.73.92.92,0,0,0-.32-.73,1.09,1.09,0,0,0-.79-.29,1,1,0,0,0-.77.3,1,1,0,0,0-.31.72,1,1,0,0,0,.31.72M270.55,30h1.71V23.15h-1.71Zm-4.05,0h1.71V19.22H266.5Zm-3.82-2.64a1.91,1.91,0,0,1-.4.65,2,2,0,0,1-.63.46,2.07,2.07,0,0,1-.84.17,2,2,0,0,1-.84-.17,2,2,0,0,1-.63-.46,1.91,1.91,0,0,1-.4-.65,2.28,2.28,0,0,1-.14-.77,2.23,2.23,0,0,1,.14-.77,2,2,0,0,1,.4-.66,1.81,1.81,0,0,1,.63-.45,2,2,0,0,1,.84-.17,2.07,2.07,0,0,1,.84.17,1.81,1.81,0,0,1,.63.45,2,2,0,0,1,.4.66,2.23,2.23,0,0,1,.14.77,2.28,2.28,0,0,1-.14.77m-5.53,5.89h1.71V29.12h0a3.46,3.46,0,0,0,.33.35,2.68,2.68,0,0,0,.48.33,3.36,3.36,0,0,0,.66.26,3.54,3.54,0,0,0,.85.1,3.28,3.28,0,0,0,1.34-.28,3.22,3.22,0,0,0,1.05-.76,3.61,3.61,0,0,0,.67-1.14,4.09,4.09,0,0,0,.24-1.41,4.25,4.25,0,0,0-.22-1.41,3.24,3.24,0,0,0-.67-1.14,3.16,3.16,0,0,0-1.07-.76,3.38,3.38,0,0,0-1.41-.28,3.24,3.24,0,0,0-1.35.29,2.19,2.19,0,0,0-1,.91h0v-1h-1.62Zm-4-11.68a1.16,1.16,0,0,0,1.57,0,.94.94,0,0,0,.32-.73,1,1,0,0,0-.32-.73,1.19,1.19,0,0,0-1.57,0,1,1,0,0,0-.3.72,1,1,0,0,0,.3.72M253.12,30h1.71V23.15h-1.71Zm-1.45-6a3,3,0,0,0-1.16-.79,3.63,3.63,0,0,0-1.32-.25,4.1,4.1,0,0,0-1.45.26,3.44,3.44,0,0,0-1.18.72,3.29,3.29,0,0,0-.79,1.14,3.75,3.75,0,0,0,0,2.94,3.25,3.25,0,0,0,.79,1.13,3.31,3.31,0,0,0,1.18.73,4.1,4.1,0,0,0,1.45.26,4,4,0,0,0,.54-.05,4.59,4.59,0,0,0,.66-.17,3.29,3.29,0,0,0,.67-.3,2.39,2.39,0,0,0,.59-.44L250.52,28a1.56,1.56,0,0,1-.59.47,1.68,1.68,0,0,1-.74.17,2.07,2.07,0,0,1-.84-.17,2.09,2.09,0,0,1-.63-.46,1.91,1.91,0,0,1-.4-.65,2.28,2.28,0,0,1-.14-.77,2.23,2.23,0,0,1,.14-.77,2,2,0,0,1,.4-.66,1.91,1.91,0,0,1,.63-.45,2.07,2.07,0,0,1,.84-.17,1.38,1.38,0,0,1,.67.18,2.88,2.88,0,0,1,.63.5Zm-7.78,0a2.2,2.2,0,0,0-1.08-.8,4,4,0,0,0-1.35-.24,3.91,3.91,0,0,0-1,.13,2.62,2.62,0,0,0-.88.4,2,2,0,0,0-.85,1.68,1.69,1.69,0,0,0,.27,1,1.9,1.9,0,0,0,.68.58,3.34,3.34,0,0,0,.89.3c.32.06.62.13.89.2a2.61,2.61,0,0,1,.69.27.67.67,0,0,1,.16.88.85.85,0,0,1-.28.25,1.18,1.18,0,0,1-.37.14,1.73,1.73,0,0,1-.38.05,1.66,1.66,0,0,1-.92-.24,3.34,3.34,0,0,1-.71-.61l-1.14,1.07a2.81,2.81,0,0,0,1.2.83,4.58,4.58,0,0,0,1.47.23,4.7,4.7,0,0,0,1.05-.12,2.94,2.94,0,0,0,.95-.37,2.07,2.07,0,0,0,.68-.67,1.89,1.89,0,0,0,.26-1,1.82,1.82,0,0,0-.27-1.05,1.9,1.9,0,0,0-.68-.61,3.77,3.77,0,0,0-.89-.32l-.89-.21a3.31,3.31,0,0,1-.68-.24.49.49,0,0,1-.27-.46.58.58,0,0,1,.32-.55,1.39,1.39,0,0,1,.67-.17,1.55,1.55,0,0,1,1.34.7Zm-8.79-2.47a1.06,1.06,0,0,0,.77.31,1.11,1.11,0,0,0,.79-.3.94.94,0,0,0,.32-.73,1,1,0,0,0-.32-.73,1.1,1.1,0,0,0-.79-.29,1,1,0,0,0-.77.3,1,1,0,0,0-.31.72,1,1,0,0,0,.31.72M235,30h1.71V23.15H235Zm-7.85-4.18a2,2,0,0,1,.4-.66,1.91,1.91,0,0,1,.63-.45,2.07,2.07,0,0,1,.84-.17,2,2,0,0,1,.84.17,1.81,1.81,0,0,1,.63.45,2,2,0,0,1,.4.66,2.23,2.23,0,0,1,.14.77,2.28,2.28,0,0,1-.14.77,1.91,1.91,0,0,1-.4.65,2,2,0,0,1-.63.46,2,2,0,0,1-.84.17,2.07,2.07,0,0,1-.84-.17,2.09,2.09,0,0,1-.63-.46,1.91,1.91,0,0,1-.4-.65,2.28,2.28,0,0,1-.14-.77,2.23,2.23,0,0,1,.14-.77M231.09,30h1.62V19.22H231V24h0a3.46,3.46,0,0,0-.33-.35,2.24,2.24,0,0,0-.48-.33,2.84,2.84,0,0,0-.66-.26,3.46,3.46,0,0,0-2.19.18,3,3,0,0,0-1,.76,3.27,3.27,0,0,0-.68,1.14,4,4,0,0,0-.24,1.41,4.34,4.34,0,0,0,.22,1.41,3.61,3.61,0,0,0,.67,1.14,3.37,3.37,0,0,0,1.06.76,3.56,3.56,0,0,0,1.42.28,3.24,3.24,0,0,0,1.35-.29,2.19,2.19,0,0,0,1-.91h0Zm-11.31,0h1.7V26.33a2.47,2.47,0,0,1,.07-.43,1.77,1.77,0,0,1,.25-.57,1.86,1.86,0,0,1,.56-.51,1.89,1.89,0,0,1,1-.22,3,3,0,0,1,.41,0l.42.09V23.08l-.31-.07a1.55,1.55,0,0,0-.31,0,2.27,2.27,0,0,0-1.21.33,2.14,2.14,0,0,0-.81.92h0V23.15h-1.7Zm-7.17-4.1a2,2,0,0,1,.55-1.18,1.69,1.69,0,0,1,1.22-.44,1.78,1.78,0,0,1,1.27.44,1.61,1.61,0,0,1,.47,1.18Zm5.21,1.29V26.7a5.12,5.12,0,0,0-.23-1.59,3.35,3.35,0,0,0-.66-1.16,2.71,2.71,0,0,0-1-.72,3.24,3.24,0,0,0-1.3-.25,4.1,4.1,0,0,0-1.45.26A3.44,3.44,0,0,0,212,24a3.29,3.29,0,0,0-.79,1.14,3.75,3.75,0,0,0,0,2.94,3.25,3.25,0,0,0,.79,1.13,3.31,3.31,0,0,0,1.18.73,4.1,4.1,0,0,0,1.45.26,3.91,3.91,0,0,0,1.55-.32,3.55,3.55,0,0,0,1.34-1.05l-1.22-.93a3.07,3.07,0,0,1-.77.67,2.07,2.07,0,0,1-1.07.26,1.84,1.84,0,0,1-1.24-.43,1.74,1.74,0,0,1-.6-1.19ZM206.09,24.6v3.14a5.55,5.55,0,0,0,.09,1.05,1.66,1.66,0,0,0,.34.76,1.45,1.45,0,0,0,.68.46,3.53,3.53,0,0,0,1.12.15,6.21,6.21,0,0,0,.69-.05,2.61,2.61,0,0,0,.66-.18V28.49a.9.9,0,0,1-.42.16,2.29,2.29,0,0,1-.5.05.86.86,0,0,1-.76-.29,1.48,1.48,0,0,1-.2-.82v-3h1.88V23.15h-1.88v-2h-1.7v2h-1.41V24.6ZM197,30h1.71V26.25a2.37,2.37,0,0,1,.09-.65,1.51,1.51,0,0,1,.28-.55,1.31,1.31,0,0,1,.48-.39,1.68,1.68,0,0,1,.72-.14,1.14,1.14,0,0,1,.7.2,1.21,1.21,0,0,1,.37.52,2.29,2.29,0,0,1,.15.65c0,.23,0,.45,0,.64V30h1.71V25.67a3.73,3.73,0,0,0-.13-1,2.26,2.26,0,0,0-.42-.85,2.14,2.14,0,0,0-.78-.6,2.73,2.73,0,0,0-1.16-.23,2.19,2.19,0,0,0-1.35.38,2.31,2.31,0,0,0-.74.89h0v-1.1H197Zm-4-8.43a1.06,1.06,0,0,0,.78.31,1.13,1.13,0,0,0,.79-.3.94.94,0,0,0,.32-.73,1,1,0,0,0-.32-.73,1.12,1.12,0,0,0-.79-.29,1.06,1.06,0,0,0-.78.3,1,1,0,0,0-.31.72,1,1,0,0,0,.31.72M193,30h1.7V23.15H193Z"/><path class="cls-1" d="M273.61,6.23a2.26,2.26,0,0,0-1.09-.81,3.91,3.91,0,0,0-1.35-.23,4.29,4.29,0,0,0-1,.12,2.73,2.73,0,0,0-.88.4,2,2,0,0,0-.86,1.68,1.73,1.73,0,0,0,.27,1,1.83,1.83,0,0,0,.69.57,3.22,3.22,0,0,0,.89.3l.89.2a2.53,2.53,0,0,1,.68.28.58.58,0,0,1,.27.53.56.56,0,0,1-.11.35.9.9,0,0,1-.27.24,1.31,1.31,0,0,1-.37.15,1.84,1.84,0,0,1-.39,0,1.7,1.7,0,0,1-.92-.24,3,3,0,0,1-.7-.6l-1.14,1.07a2.73,2.73,0,0,0,1.2.82,4.52,4.52,0,0,0,1.46.23,5.35,5.35,0,0,0,1.05-.11,3.09,3.09,0,0,0,.95-.37,2.13,2.13,0,0,0,.69-.68,1.94,1.94,0,0,0,.26-1,1.77,1.77,0,0,0-.27-1.05,2,2,0,0,0-.68-.61,3.53,3.53,0,0,0-.89-.33l-.89-.2a2.87,2.87,0,0,1-.69-.25.47.47,0,0,1-.27-.45.59.59,0,0,1,.33-.56,1.48,1.48,0,0,1,.67-.17,1.57,1.57,0,0,1,1.34.7ZM260.94,8a1.91,1.91,0,0,1,.4-.65,2.09,2.09,0,0,1,.63-.46,2.07,2.07,0,0,1,.84-.17,2,2,0,0,1,.84.17,2.14,2.14,0,0,1,.64.46,1.88,1.88,0,0,1,.39.65,2.06,2.06,0,0,1,.14.77,2,2,0,0,1-.14.77,1.83,1.83,0,0,1-.39.66,2,2,0,0,1-.64.45,1.86,1.86,0,0,1-.84.17,2,2,0,0,1-1.47-.62,1.86,1.86,0,0,1-.4-.66,2.19,2.19,0,0,1-.13-.77,2.27,2.27,0,0,1,.13-.77m3.91,4.19h1.62V1.43h-1.71v4.8h0a1.79,1.79,0,0,0-.33-.35,2.69,2.69,0,0,0-.48-.34,3.52,3.52,0,0,0-.65-.26,3.72,3.72,0,0,0-.86-.09,3.31,3.31,0,0,0-1.34.27,3.07,3.07,0,0,0-1,.77,3.48,3.48,0,0,0-.68,1.13,4.09,4.09,0,0,0-.24,1.41,4.25,4.25,0,0,0,.22,1.41,3.4,3.4,0,0,0,.67,1.14,3.16,3.16,0,0,0,1.07.76,3.32,3.32,0,0,0,1.41.28,3.17,3.17,0,0,0,1.35-.28,2.25,2.25,0,0,0,1-.91h0Zm-13.92,0h1.71V8.46a2.69,2.69,0,0,1,.08-.65,1.55,1.55,0,0,1,.28-.56,1.32,1.32,0,0,1,.49-.38,1.54,1.54,0,0,1,.72-.15,1.05,1.05,0,0,1,.69.21,1.27,1.27,0,0,1,.38.51,2.44,2.44,0,0,1,.15.66q0,.35,0,.63v3.46h1.71V7.88a4.17,4.17,0,0,0-.13-1,2.32,2.32,0,0,0-.43-.86,2.26,2.26,0,0,0-.78-.6,2.65,2.65,0,0,0-1.15-.22,2.22,2.22,0,0,0-1.36.37,2.41,2.41,0,0,0-.74.89h0V5.36h-1.62Zm-3.87-2.68a1.55,1.55,0,0,1-.42,1.15,1.78,1.78,0,0,1-1.3.42,2,2,0,0,1-.43-.05,1.18,1.18,0,0,1-.38-.16.93.93,0,0,1-.28-.28.76.76,0,0,1-.11-.41.67.67,0,0,1,.27-.57,1.85,1.85,0,0,1,.66-.32,4.36,4.36,0,0,1,.83-.13l.8,0h.36Zm.1,2.68h1.54V8.26c0-.16,0-.35,0-.56a3.74,3.74,0,0,0-.09-.66,2.57,2.57,0,0,0-.26-.68,1.85,1.85,0,0,0-.5-.59,2.81,2.81,0,0,0-.83-.42,3.92,3.92,0,0,0-1.22-.16,5,5,0,0,0-1.58.25,3.34,3.34,0,0,0-1.33.84l.9.9a2.6,2.6,0,0,1,1.82-.71,1.84,1.84,0,0,1,1.13.32,1.11,1.11,0,0,1,.44,1v.18h-.43l-.91,0c-.32,0-.64,0-1,.1a5.65,5.65,0,0,0-.92.24,2.49,2.49,0,0,0-.77.42,1.88,1.88,0,0,0-.54.65,2.15,2.15,0,0,0-.2,1,1.77,1.77,0,0,0,.22.9,2,2,0,0,0,.56.64,2.37,2.37,0,0,0,.8.38,3.21,3.21,0,0,0,2.17-.13,2.31,2.31,0,0,0,.94-.85h0Zm-8.32,0h1.71V1.43h-1.71Zm-5.89,0h1.7V8.53a1.84,1.84,0,0,1,.07-.43,1.58,1.58,0,0,1,.25-.57,2,2,0,0,1,.56-.5,1.8,1.8,0,0,1,1-.22l.41,0,.42.1V5.28L237,5.22a1.55,1.55,0,0,0-.31,0,2.24,2.24,0,0,0-1.21.32,2.17,2.17,0,0,0-.81.93h0V5.36H233Zm-7.17-4.1a2,2,0,0,1,.55-1.18,1.63,1.63,0,0,1,1.22-.44,1.74,1.74,0,0,1,1.26.43,1.6,1.6,0,0,1,.47,1.19ZM231,9.37V8.9a5.12,5.12,0,0,0-.23-1.59,3.45,3.45,0,0,0-.66-1.16,2.69,2.69,0,0,0-1-.71,3.24,3.24,0,0,0-1.3-.25,4.09,4.09,0,0,0-1.45.25,3.6,3.6,0,0,0-1.19.73,3.36,3.36,0,0,0-.78,1.13,3.51,3.51,0,0,0-.3,1.47,3.56,3.56,0,0,0,.3,1.48,3.36,3.36,0,0,0,.78,1.13,3.58,3.58,0,0,0,1.19.72,4.1,4.1,0,0,0,3,0A3.48,3.48,0,0,0,230.68,11l-1.23-.92a3,3,0,0,1-.76.66,2,2,0,0,1-1.07.26,1.88,1.88,0,0,1-1.24-.42,1.78,1.78,0,0,1-.6-1.2ZM217.64,1.43h-1.71V12.19h1.71V8.46a2.69,2.69,0,0,1,.08-.65,1.55,1.55,0,0,1,.28-.56,1.32,1.32,0,0,1,.49-.38,1.52,1.52,0,0,1,.71-.15,1.06,1.06,0,0,1,.7.21,1.27,1.27,0,0,1,.38.51,2.44,2.44,0,0,1,.15.66q0,.35,0,.63v3.46h1.7V7.88a4.17,4.17,0,0,0-.12-1,2.32,2.32,0,0,0-.43-.86,2.26,2.26,0,0,0-.78-.6,2.7,2.7,0,0,0-1.16-.22,2.26,2.26,0,0,0-1.3.34,2,2,0,0,0-.7.78h0Zm-7.08,5.38V9.94a5.41,5.41,0,0,0,.09,1.05,1.7,1.7,0,0,0,.34.77,1.51,1.51,0,0,0,.68.45,3.53,3.53,0,0,0,1.12.15,6.21,6.21,0,0,0,.69,0,2,2,0,0,0,.66-.18V10.7a1,1,0,0,1-.42.16,3.13,3.13,0,0,1-.5.05.83.83,0,0,1-.76-.3,1.47,1.47,0,0,1-.2-.81v-3h1.88V5.36h-1.88v-2h-1.7v2h-1.41V6.81Zm-7.78,1.28a2,2,0,0,1,.55-1.18,1.63,1.63,0,0,1,1.22-.44,1.74,1.74,0,0,1,1.26.43,1.6,1.6,0,0,1,.47,1.19ZM208,9.37V8.9a4.83,4.83,0,0,0-.24-1.59,3.27,3.27,0,0,0-.65-1.16,2.77,2.77,0,0,0-1-.71,3.24,3.24,0,0,0-1.3-.25,4.15,4.15,0,0,0-1.46.25,3.42,3.42,0,0,0-2,1.86,3.67,3.67,0,0,0-.29,1.47,3.72,3.72,0,0,0,.29,1.48,3.37,3.37,0,0,0,2,1.85,4.12,4.12,0,0,0,3,0A3.48,3.48,0,0,0,207.68,11l-1.23-.92a3.2,3.2,0,0,1-.76.66,2,2,0,0,1-1.07.26,1.88,1.88,0,0,1-1.24-.42,1.78,1.78,0,0,1-.6-1.2Zm-15.06,2.82h1.71V8.46a2.27,2.27,0,0,1,.08-.65,1.55,1.55,0,0,1,.28-.56,1.37,1.37,0,0,1,.48-.38,1.59,1.59,0,0,1,.72-.15,1.08,1.08,0,0,1,.7.21,1.27,1.27,0,0,1,.38.51,2.44,2.44,0,0,1,.15.66c0,.23,0,.44,0,.63v3.46h1.71V7.88a3.73,3.73,0,0,0-.13-1,2.16,2.16,0,0,0-.42-.86,2.26,2.26,0,0,0-.78-.6,2.7,2.7,0,0,0-1.16-.22,2.19,2.19,0,0,0-1.35.37,2.41,2.41,0,0,0-.74.89h0V5.36h-1.62Z"/><path class="cls-1" d="M143.1,65.73h13.05V23.48H143.1ZM112.54,52.34c-1.82,2-4.39,2.95-7.69,2.95s-5.87-1-7.7-2.95a11,11,0,0,1-2.73-7.74,11,11,0,0,1,2.73-7.74q2.75-3,7.7-3c3.3,0,5.87,1,7.69,3a10.92,10.92,0,0,1,2.74,7.74,10.92,10.92,0,0,1-2.74,7.74M127.28,0h-13V28h-.17a12.2,12.2,0,0,0-5.79-4.31,22.36,22.36,0,0,0-7.6-1.26,17.11,17.11,0,0,0-8.09,1.87,18.63,18.63,0,0,0-6,5,23.5,23.5,0,0,0-3.83,7.17A26.6,26.6,0,0,0,81.38,45a25.28,25.28,0,0,0,1.47,8.78,20.11,20.11,0,0,0,4.22,6.91,19,19,0,0,0,6.56,4.52,21.65,21.65,0,0,0,8.53,1.61,14.54,14.54,0,0,0,4.21-.61,17.7,17.7,0,0,0,3.74-1.56,16,16,0,0,0,3-2.13,14.89,14.89,0,0,0,2-2.31h.17v5.57h12Zm-72,65.73H68.34V23.48H55.29ZM0,65.73H13v-21a30.21,30.21,0,0,1,.26-4,10.14,10.14,0,0,1,1.09-3.44,6.27,6.27,0,0,1,2.39-2.43,8,8,0,0,1,4.09-.91,6.26,6.26,0,0,1,3.87,1,6.23,6.23,0,0,1,2,2.7,11.83,11.83,0,0,1,.79,3.6c.08,1.31.13,2.57.13,3.79V65.73h13V42.43a49,49,0,0,0-.61-7.92,17.15,17.15,0,0,0-2.3-6.34A11.59,11.59,0,0,0,33,24a18,18,0,0,0-8-1.52,14.75,14.75,0,0,0-4.35.61,15.88,15.88,0,0,0-3.56,1.56,12.57,12.57,0,0,0-2.7,2.18,10.8,10.8,0,0,0-1.74,2.43h-.17V23.48H0Z"/><path class="cls-2" d="M61.69,16.92a7.75,7.75,0,1,0-7.75-7.75,7.75,7.75,0,0,0,7.75,7.75"/><path class="cls-2" d="M61.69,105.06a7.75,7.75,0,1,0-7.75-7.75,7.75,7.75,0,0,0,7.75,7.75"/><path class="cls-2" d="M149.81,16.92a7.75,7.75,0,1,0-7.74-7.75,7.75,7.75,0,0,0,7.74,7.75"/></svg>